states
version=1
nRows=10
nColumns=39
inDegrees=yes
endheader
time	/hamstrings_r/activation	/bifemsh_r/activation	/glut_max_r/activation	/iliopsoas_r/activation	/rect_fem_r/activation	/vasti_r/activation	/gastroc_r/activation	/soleus_r/activation	/tib_ant_r/activation	/hamstrings_l/activation	/bifemsh_l/activation	/glut_max_l/activation	/iliopsoas_l/activation	/rect_fem_l/activation	/vasti_l/activation	/gastroc_l/activation	/soleus_l/activation	/tib_ant_l/activation	/jointset/groundPelvis/pelvis_tilt/value	/jointset/groundPelvis/pelvis_tilt/speed	/jointset/groundPelvis/pelvis_tx/value	/jointset/groundPelvis/pelvis_tx/speed	/jointset/groundPelvis/pelvis_ty/value	/jointset/groundPelvis/pelvis_ty/speed	/jointset/hip_l/hip_flexion_l/value	/jointset/hip_l/hip_flexion_l/speed	/jointset/hip_r/hip_flexion_r/value	/jointset/hip_r/hip_flexion_r/speed	/jointset/knee_l/knee_angle_l/value	/jointset/knee_l/knee_angle_l/speed	/jointset/knee_r/knee_angle_r/value	/jointset/knee_r/knee_angle_r/speed	/jointset/ankle_l/ankle_angle_l/value	/jointset/ankle_l/ankle_angle_l/speed	/jointset/ankle_r/ankle_angle_r/value	/jointset/ankle_r/ankle_angle_r/speed	/jointset/lumbar/lumbar/value	/jointset/lumbar/lumbar/speed
      0.00000000	      0.01000000	      0.01000000	      0.01000000	      0.01000000	      0.01000000	      0.01000000	      0.01000000	      0.01000000	      0.01000000	      0.01000000	      0.01000000	      0.01000000	      0.01000000	      0.01000000	      0.01000000	      0.01000000	      0.01000000	      0.01000000	     43.42576027	      1.79953584	      0.05028483	     -0.01757836	      0.54743397	     -0.01054828	     48.39742332	     -0.21117132	     48.83767648	     -0.09426728	   -112.00197830	      1.08522702	   -112.11512652	     -0.36562342	     18.57743354	      0.34997604	     21.10914223	      0.95594696	    -53.18264053	      0.05780134
      0.01000000	      0.01000000	      0.01000000	      0.01000000	      0.01000000	      0.01000000	      0.01000000	      0.01000000	      0.01000000	      0.01000000	      0.01000000	      0.01000000	      0.01000000	      0.01000000	      0.01000000	      0.01000000	      0.01000000	      0.01000000	      0.01000000	     43.43644553	      0.48296781	      0.05012253	     -0.01482427	      0.54732708	     -0.01064282	     48.40433078	      1.33390474	     48.84734984	      1.87672500	   -111.99684431	      0.06959053	   -112.11356332	      0.50314188	     18.57708584	     -0.33460985	     21.10791165	     -0.93613823	    -53.18041377	      0.27806634
      0.02000000	      0.01000000	      0.01000000	      0.01000000	      0.01000000	      0.01000000	      0.01000000	      0.01000000	      0.01000000	      0.01000000	      0.01000000	      0.01000000	      0.01000000	      0.01000000	      0.01000000	      0.01000000	      0.01000000	      0.01000000	      0.01000000	     43.44220950	      0.62198563	      0.04999107	     -0.01147245	      0.54722817	     -0.00970107	     48.41158659	      0.07167993	     48.86869986	      2.62168304	   -111.99381347	      0.73352725	   -112.11513757	     -1.33008464	     18.57524799	      0.10204798	     21.10382237	      0.32756072	    -53.18476793	     -1.88623918
      0.03000000	      0.01000000	      0.01000000	      0.01000000	      0.01000000	      0.01000000	      0.01000000	      0.01000000	      0.01000000	      0.01000000	      0.01000000	      0.01000000	      0.01000000	      0.01000000	      0.01000000	      0.01000000	      0.01000000	      0.01000000	      0.01000000	     43.41672550	     -7.57005190	      0.04987991	     -0.01183825	      0.54706351	     -0.02690471	     48.45613952	     11.95431930	     48.94287293	     14.42436366	   -111.99741938	     -2.59261569	   -112.13264539	     -1.13712655	     18.56937557	     -1.98604843	     21.07187307	     -9.49323779	    -53.23654186	     -8.77355043
      0.04000000	      0.01000000	      0.01000000	      0.01000000	      0.01000000	      0.01000000	      0.01000000	      0.01000000	      0.01000000	      0.01000000	      0.01000000	      0.01000000	      0.01000000	      0.01000000	      0.01000000	      0.01000000	      0.01000000	      0.01000000	      0.01000000	     43.33015559	     -4.98890653	      0.04974641	     -0.01432431	      0.54677353	     -0.02101540	     48.59810229	      9.36965858	     49.09390094	      8.96255375	   -112.03339008	     -2.48065055	   -112.13251069	      0.53236184	     18.54506527	     -1.48351071	     20.95772965	     -7.31037566	    -53.32222601	     -5.11659732
      0.05000000	      0.01000000	      0.01000000	      0.01000000	      0.01000000	      0.01000000	      0.01000000	      0.01000000	      0.01000000	      0.01000000	      0.01000000	      0.01000000	      0.01000000	      0.01000000	      0.01000000	      0.01000000	      0.01000000	      0.01000000	      0.01000000	     43.33751929	      2.94772210	      0.04961181	     -0.01179559	      0.54670597	      0.00122700	     48.60315780	     -3.80175995	     49.10219900	     -1.64488287	   -112.02961881	      2.19799236	   -112.13061597	     -0.10388306	     18.54539253	      0.57159401	     20.95713645	      3.19181312	    -53.32296437	      2.28430604
      0.06000000	      0.01000000	      0.01000000	      0.01000000	      0.01000000	      0.01000000	      0.01000000	      0.01000000	      0.01000000	      0.01000000	      0.01000000	      0.01000000	      0.01000000	      0.01000000	      0.01000000	      0.01000000	      0.01000000	      0.01000000	      0.01000000	     43.32356252	     -6.52810363	      0.04951120	     -0.00907858	      0.54663530	     -0.01979693	     48.62069763	      9.21124735	     49.15247350	     12.10043867	   -112.02166432	     -1.67293824	   -112.13315102	     -0.39918860	     18.54505368	     -0.42687728	     20.94685221	     -6.17390777	    -53.36437898	    -13.61607371
      0.07000000	      0.01000000	      0.01000000	      0.01000000	      0.01000000	      0.01000000	      0.01000000	      0.01000000	      0.01000000	      0.01000000	      0.01000000	      0.01000000	      0.01000000	      0.01000000	      0.01000000	      0.01000000	      0.01000000	      0.01000000	      0.01000000	     43.24568876	     -6.02103824	      0.04941178	     -0.01129289	      0.54639217	     -0.01977695	     48.73728557	      9.40801570	     49.28536428	     10.60857064	   -112.05034338	     -2.31480403	   -112.13442729	      0.43826710	     18.54052584	     -0.55188644	     20.86835307	     -6.72224685	    -53.52943392	    -12.15207679
      0.08000000	      0.01000000	      0.01000000	      0.01000000	      0.01000000	      0.01000000	      0.01000000	      0.01000000	      0.01000000	      0.01000000	      0.01000000	      0.01000000	      0.01000000	      0.01000000	      0.01000000	      0.01000000	      0.01000000	      0.01000000	      0.01000000	     43.21046110	     -3.24992746	      0.04929921	     -0.00993904	      0.54626955	     -0.01107858	     48.79269014	      4.85813854	     49.35643024	      6.44365650	   -112.05859122	     -0.29175091	   -112.12801222	      0.31275660	     18.53455132	     -0.44539410	     20.82590684	     -3.24873708	    -53.58939446	     -5.59245782
      0.09000000	      0.01000000	      0.01000000	      0.01000000	      0.01000000	      0.01000000	      0.01000000	      0.01000000	      0.01000000	      0.01000000	      0.01000000	      0.01000000	      0.01000000	      0.01000000	      0.01000000	      0.01000000	      0.01000000	      0.01000000	      0.01000000	     43.15908261	     -6.05584026	      0.04921071	     -0.00891531	      0.54611845	     -0.01569467	     48.86579245	      8.34853849	     49.44392376	      9.97881314	   -112.06447441	     -0.40131246	   -112.12892300	     -0.03401974	     18.53382903	      0.23840714	     20.78847317	     -3.59323701	    -53.69922699	    -14.03413094
